<?xml version="1.0" standalone="no"?>
<!DOCTYPE svg PUBLIC "-//W3C//DTD SVG 20010904//EN"
 "http://www.w3.org/TR/2001/REC-SVG-20010904/DTD/svg10.dtd">
<svg version="1.0" xmlns="http://www.w3.org/2000/svg"
 width="416.000000pt" height="416.000000pt" viewBox="0 0 416.000000 416.000000"
 preserveAspectRatio="xMidYMid meet">
<metadata>
Created by potrace 1.11, written by Peter Selinger 2001-2013
</metadata>
<g transform="translate(0.000000,416.000000) scale(0.100000,-0.100000)"
fill="#000000" stroke="none">
<path d="M1379 3763 l-26 -16 23 -63 c24 -65 64 -137 84 -149 6 -4 24 -34 41
-68 17 -34 52 -86 77 -116 50 -59 181 -161 207 -161 21 0 52 16 97 53 30 24
38 38 43 77 14 99 -35 197 -160 327 -51 53 -77 73 -95 73 -14 0 -36 7 -49 17
-27 18 -128 42 -181 42 -19 0 -47 -7 -61 -16z"/>
<path d="M2948 3673 l-45 -40 -254 -18 c-169 -12 -261 -23 -274 -32 -11 -7
-28 -13 -38 -13 -11 0 -33 -7 -51 -15 -28 -13 -32 -20 -28 -45 2 -17 12 -32
22 -35 10 -3 46 -24 79 -45 84 -55 150 -87 193 -95 28 -5 48 0 98 25 49 25
305 100 340 100 10 0 29 -117 35 -216 3 -49 10 -201 15 -339 6 -188 14 -277
30 -360 17 -87 21 -128 16 -195 -4 -47 -6 -101 -5 -120 1 -19 2 -51 2 -70 -1
-19 -2 -69 -2 -110 0 -41 -5 -88 -9 -105 -5 -18 -4 -41 2 -57 7 -19 7 -52 -2
-110 -6 -46 -15 -168 -18 -273 -8 -252 -10 -258 -58 -266 -21 -3 -79 0 -129 8
-51 8 -105 11 -120 9 -16 -3 -55 3 -87 14 -81 27 -90 25 -41 -11 29 -21 41
-36 38 -48 -3 -13 15 -27 77 -59 159 -81 195 -131 196 -268 0 -106 9 -117 90
-120 54 -2 67 1 100 25 21 15 73 41 116 57 45 17 90 42 108 60 109 109 154
202 156 320 5 305 11 496 21 654 7 113 9 205 3 235 -4 28 -9 217 -9 420 -1
342 -12 584 -33 728 -5 35 -5 60 1 64 5 3 7 22 3 41 -3 20 -1 42 6 49 8 10 -5
31 -57 89 -114 126 -232 191 -365 201 l-76 6 -46 -40z"/>
<path d="M2417 3195 c-15 -9 -36 -13 -46 -10 -19 6 -99 -9 -136 -25 -11 -5
-31 -9 -45 -9 -39 0 -210 -19 -260 -30 -25 -5 -76 -16 -115 -25 -38 -9 -143
-21 -232 -26 -171 -9 -227 -24 -266 -67 -18 -20 -17 -22 38 -70 56 -50 107
-73 162 -73 l31 0 -5 -112 c-2 -62 -9 -144 -14 -183 -6 -38 -14 -160 -20 -270
-17 -361 -48 -440 -180 -461 -23 -4 -54 -13 -68 -21 -14 -7 -33 -13 -42 -13
-9 0 -22 -6 -28 -14 -8 -9 -42 -17 -89 -21 -42 -4 -92 -14 -111 -21 -19 -8
-36 -12 -38 -10 -3 3 0 78 6 168 6 90 13 242 17 338 4 124 10 180 20 195 8 11
14 39 14 63 0 23 8 54 17 69 13 19 18 57 23 152 4 108 8 132 29 166 19 33 22
48 16 89 -10 82 -37 120 -108 160 -78 44 -95 45 -108 6 -6 -16 -15 -30 -19
-30 -5 0 -4 -14 2 -30 5 -17 7 -43 3 -58 -8 -33 -32 -373 -40 -577 -4 -86 -13
-169 -21 -195 -8 -25 -18 -115 -24 -200 -10 -172 -29 -303 -56 -382 -9 -29
-16 -75 -15 -103 1 -33 -9 -84 -29 -150 -43 -137 -48 -195 -23 -232 11 -15 34
-55 51 -88 37 -71 82 -122 115 -131 20 -4 30 1 50 28 31 42 41 73 29 95 -8 13
-4 28 10 58 27 51 36 167 17 213 -11 26 -12 58 -5 148 9 108 10 114 31 114 12
0 43 -14 68 -31 55 -36 65 -35 172 16 38 19 90 39 115 45 25 7 54 18 65 25 12
7 43 12 70 12 37 0 72 9 133 36 57 26 98 37 130 37 29 0 57 7 72 18 24 16 70
23 154 22 22 0 47 7 57 16 10 9 30 14 46 12 27 -3 28 -6 35 -73 4 -38 4 -117
1 -175 -4 -58 -6 -108 -5 -112 1 -4 3 -60 6 -126 5 -145 20 -202 52 -202 27 0
34 -17 34 -81 0 -42 3 -49 19 -49 14 0 24 13 35 47 35 104 72 183 84 183 18 0
32 44 32 105 0 38 4 54 15 59 18 7 55 88 55 119 0 42 64 362 74 369 6 4 92 4
193 1 191 -6 333 7 333 32 0 7 -9 24 -20 38 -11 14 -20 32 -20 40 0 22 -20 35
-73 46 -25 6 -65 18 -87 27 -49 20 -176 13 -194 -10 -6 -8 -36 -16 -68 -18
l-57 -5 -7 51 c-7 49 -7 171 2 628 l4 207 -29 34 c-17 19 -35 45 -40 60 -9 24
-8 26 31 32 22 4 87 4 143 0 101 -7 177 3 190 26 4 5 -2 24 -12 41 -14 25 -33
36 -88 55 -92 31 -219 40 -258 18z m-337 -273 c21 -101 16 -110 -70 -138 -79
-25 -150 -31 -150 -13 0 6 -29 41 -65 78 l-65 68 57 17 c63 19 199 43 249 45
30 1 32 -1 44 -57z m13 -344 c3 -29 9 -74 13 -99 l6 -46 -58 -11 c-33 -6 -92
-16 -132 -22 -41 -6 -87 -17 -103 -25 -15 -8 -40 -15 -55 -15 -27 0 -27 0 -21
59 12 109 47 161 111 161 23 0 75 11 116 25 112 36 116 35 123 -27z m7 -433
c0 -144 1 -143 -106 -171 -32 -8 -70 -25 -83 -37 l-24 -22 12 23 c21 40 0 49
-30 12 -23 -28 -32 -32 -56 -26 -15 4 -42 10 -59 13 -39 6 -54 44 -54 135 l0
65 49 6 c26 3 88 24 137 45 49 22 115 46 147 53 31 8 57 17 57 21 0 5 2 8 5 8
3 0 5 -56 5 -125z"/>
</g>
</svg>
